<?xml version="1.0" encoding="UTF-8"?>
<svg version="1.1" viewBox="0 0 1600 1600" width="1280" height="1280" xmlns="http://www.w3.org/2000/svg">
<path transform="translate(0)" d="m0 0h1600v1600h-1600z" fill="#212121"/>
<path transform="translate(739,444)" d="m0 0h9l1 1v564h-113l-4-13-6-24-6 3-10 9-17 12-23 12-21 7-15 3-9 1h-13l-18-2-21-5-19-7-15-8-16-12-14-13-9-11-10-14-10-18-10-25-7-25-5-30-2-21v-46l4-30 6-25 7-20 11-23 10-16 11-15 12-13 9-9 17-13 17-10 15-6 17-5 13-2h34l20 4 12 4 15 8 14 10 9 7 1-108 2-14 5-13 8-12 9-9 10-7 16-8 16-5 19-4 25-3z" fill="#FEFEFE"/>
<path transform="translate(860,604)" d="m0 0h138l1 1v155l-1 152-1 94-3 27-6 26-5 15-7 15-9 16-9 12-9 10-13 10-14 8-14 6-21 6-19 3-12 1h-33l-28-3-24-5-5-2v-2l16-8 11-6 11-8 10-9 9-9 10-14 6-10 8-19 5-17 4-26 1-13 1-270 1-134z" fill="#FEFEFE"/>
<path transform="translate(1163,847)" d="m0 0 14 1 16 4 15 8 10 8 9 9 9 14 6 14 3 14v19l-4 18-8 16-10 13-9 8-11 7-13 6-17 4h-18l-14-3-13-5-13-8-12-11-9-12-8-17-3-12-1-8v-10l2-14 4-12 8-15 12-14 13-10 14-7 16-4z" fill="#FEFEFE"/>
<path transform="translate(919,369)" d="m0 0h25l14 3 9 4 12 7 11 9 11 14 7 14 4 13 1 6v21l-3 14-5 12-6 10-8 10-11 10-16 9-16 5-7 1h-18l-15-3-16-7-14-10-8-8-7-10-8-16-4-15v-25l4-15 8-16 8-10 12-12 13-8 14-5z" fill="#FEFEFE"/>
<path transform="translate(545,708)" d="m0 0h24l19 5 15 8 6 5 1 2v147l-4 8-8 9-10 7-12 5-5 1h-24l-10-3-11-6-11-11-6-10-5-13-4-18-2-17v-43l3-20 5-17 5-11 7-11 8-8 10-6z" fill="#212121"/>
</svg>
